<svg xmlns="http://www.w3.org/2000/svg" width="40" height="40" viewBox="0 0 40 40" fill="none">
<circle cx="20" cy="20" r="20" fill="#E1E6EB"/>
<g transform="translate(11.01 10.94)"><path id="Vector" d="M3.77372 1.87393C3.77347 2.37068 3.57443 2.84699 3.2204 3.19807C2.86637 3.54914 2.38634 3.74624 1.88591 3.74599C1.38549 3.74574 0.905658 3.54817 0.551981 3.19674C0.198303 2.84531 -0.000249977 2.36881 2.36198e-07 1.87206C0.000250449 1.37531 0.199284 0.899005 0.553315 0.547926C0.907347 0.196846 1.38738 -0.00024814 1.8878 2.34463e-07C2.38823 0.000248609 2.86806 0.19782 3.22174 0.54925C3.57541 0.90068 3.77397 1.37718 3.77372 1.87393V1.87393ZM3.83032 5.13294H0.0566059V16.8579H3.83032V5.13294ZM9.79279 5.13294H6.03795V16.8579H9.75506V10.7051C9.75506 7.27752 14.2552 6.95911 14.2552 10.7051V16.8579H17.9818V9.43147C17.9818 3.65328 11.3211 3.86867 9.75506 6.70626L9.79279 5.13294V5.13294Z" fill="#474B52"/></g>
</svg>
