<svg width="199" height="57" viewBox="0 0 199 57" fill="none" xmlns="http://www.w3.org/2000/svg">
<path d="M67.3301 41.8381V30.4875C67.3301 28.1029 66.8695 27.1967 66.1687 26.3057C65.4679 25.4096 64.2915 24.964 62.6345 24.964H58.3794V41.8381H50.4249V1.94378H65.1224C68.4364 1.94378 71.0145 2.78925 72.8567 4.48527C74.6989 6.18128 75.62 8.75821 75.62 12.2262C75.62 14.9094 75.0844 17.0965 74.0181 18.7926C72.9468 20.4886 71.2898 21.5771 69.0471 22.0631V22.1745C71.0345 22.4732 72.4913 23.1263 73.4124 24.1287C74.3335 25.1362 75.2896 26.5588 75.2896 31.419V41.8381H67.3301ZM61.6933 19.3748C63.6106 19.3748 65.0824 18.9191 66.1136 18.0078C67.1449 17.0965 67.6605 15.5575 67.6605 13.3957C67.6605 9.71001 65.8183 7.86211 62.1339 7.86211H58.3744V19.3748H61.6933Z" fill="url(#paint0_linear_1_3571)"/>
<path d="M128.989 41.8381V30.4875C128.989 28.1029 128.528 27.1967 127.827 26.3057C127.127 25.4096 125.95 24.964 124.293 24.964H120.038V41.8381H112.084V1.94378H126.781C130.095 1.94378 132.673 2.78925 134.515 4.48527C136.358 6.18128 137.279 8.75821 137.279 12.2262C137.279 14.9094 136.743 17.0965 135.677 18.7926C134.606 20.4886 132.949 21.5771 130.706 22.0631V22.1745C132.693 22.4732 134.15 23.1263 135.071 24.1287C135.992 25.1362 136.948 26.5588 136.948 31.419V41.8381H128.989ZM123.357 19.3748C125.274 19.3748 126.746 18.9191 127.777 18.0078C128.809 17.0965 129.324 15.5575 129.324 13.3957C129.324 9.71001 127.482 7.86211 123.798 7.86211H120.038V19.3748H123.357Z" fill="url(#paint1_linear_1_3571)"/>
<path d="M98.6025 1.94378L109.045 41.8381H100.76L98.9379 33.3985H88.4403L86.6182 41.8381H78.3282L88.7657 1.94378H98.6025ZM97.5512 26.8069L93.7417 8.8696H93.6316L89.817 26.8069H97.5512Z" fill="url(#paint2_linear_1_3571)"/>
<path d="M141.355 13.5374C141.63 10.9858 142.241 8.79873 143.177 6.97108C144.118 5.1485 145.47 3.7208 147.237 2.69813C149.004 1.67546 151.382 1.15906 154.366 1.15906C157.349 1.15906 159.727 1.6704 161.494 2.69813C163.261 3.7208 164.618 5.1485 165.554 6.97108C166.495 8.79873 167.101 10.9858 167.376 13.5374C167.651 16.0891 167.792 18.8736 167.792 21.891C167.792 24.9083 167.651 27.7384 167.376 30.2748C167.101 32.8062 166.49 34.9883 165.554 36.8108C164.613 38.6385 163.261 40.0358 161.494 41.0028C159.727 41.9698 157.349 42.4558 154.366 42.4558C151.382 42.4558 149.004 41.9698 147.237 41.0028C145.47 40.0358 144.113 38.6385 143.177 36.8108C142.236 34.9883 141.63 32.8062 141.355 30.2748C141.08 27.7435 140.94 24.9489 140.94 21.891C140.94 18.8331 141.08 16.0891 141.355 13.5374ZM149.089 28.7358C149.219 30.6191 149.475 32.143 149.86 33.3176C150.246 34.4921 150.801 35.3477 151.517 35.8894C152.233 36.4311 153.184 36.6995 154.361 36.6995C155.537 36.6995 156.488 36.4311 157.204 35.8894C157.92 35.3477 158.476 34.4921 158.861 33.3176C159.246 32.143 159.507 30.6191 159.632 28.7358C159.762 26.8575 159.827 24.5742 159.827 21.891C159.827 19.2077 159.762 16.9345 159.632 15.0765C159.502 13.2134 159.246 11.6895 158.861 10.4947C158.476 9.305 157.92 8.43927 157.204 7.89756C156.483 7.35585 155.537 7.08752 154.361 7.08752C153.184 7.08752 152.233 7.36091 151.517 7.89756C150.796 8.43927 150.246 9.305 149.86 10.4947C149.475 11.6895 149.214 13.2134 149.089 15.0765C148.959 16.9396 148.894 19.2128 148.894 21.891C148.894 24.5691 148.959 26.8575 149.089 28.7358Z" fill="url(#paint3_linear_1_3571)"/>
<path d="M189.744 11.4972C189.579 10.7124 189.309 9.99859 188.943 9.34549C188.573 8.6924 188.107 8.15575 187.536 7.72542C186.966 7.30015 186.275 7.08245 185.464 7.08245C183.547 7.08245 182.165 8.16081 181.319 10.3226C180.473 12.4844 180.047 16.0587 180.047 21.0505C180.047 23.4351 180.123 25.5969 180.268 27.5308C180.413 29.4699 180.683 31.1153 181.069 32.4771C181.454 33.839 182.01 34.8819 182.726 35.6059C183.442 36.3349 184.373 36.6944 185.514 36.6944C185.995 36.6944 186.515 36.5628 187.091 36.3046C187.662 36.0464 188.197 35.6515 188.693 35.13C189.188 34.6085 189.604 33.9504 189.934 33.1454C190.265 32.3455 190.43 31.4038 190.43 30.3255V26.2449H185.179V20.3215H198.054V41.8331H192.197V38.1474H192.087C191.131 39.7118 189.979 40.8205 188.633 41.4736C187.286 42.1267 185.674 42.4507 183.797 42.4507C181.364 42.4507 179.387 42.0204 177.855 41.1648C176.328 40.3092 175.127 38.9878 174.266 37.1956C173.4 35.4084 172.819 33.2011 172.523 30.5735C172.228 27.946 172.083 24.9033 172.083 21.4353C172.083 17.9673 172.293 15.1423 172.719 12.6059C173.139 10.0745 173.87 7.9583 174.901 6.26229C175.933 4.56627 177.294 3.29046 178.991 2.43486C180.683 1.57926 182.806 1.14893 185.344 1.14893C189.689 1.14893 192.823 2.23741 194.735 4.41945C196.652 6.59643 197.608 9.72013 197.608 13.7804H189.984C189.984 13.0362 189.899 12.2718 189.734 11.4921L189.744 11.4972Z" fill="url(#paint4_linear_1_3571)"/>
<path fill-rule="evenodd" clip-rule="evenodd" d="M11.9808 0H28.902L28.3411 2.8573C27.1515 8.91717 25.3538 14.7656 23.0125 20.3219C23.7084 21.8631 24.4495 23.3791 25.2337 24.868C27.9003 17.8021 31.6733 11.3237 36.8176 5.76784L40.9085 1.34963V36.8306C40.9085 38.0283 40.9086 39.0682 40.8392 39.9261C40.7659 40.8336 40.6034 41.7459 40.1598 42.6265C39.5012 43.9336 38.4504 44.9964 37.1579 45.6624C36.2872 46.1111 35.3851 46.2754 34.4877 46.3496C33.6395 46.4197 32.6112 46.4196 31.4269 46.4196H26.6255C25.6746 49.2713 24.1649 51.8503 22.2373 54.0118L20.4641 55.9999L18.71 53.9946C16.799 51.8098 15.2946 49.2383 14.3435 46.4196H9.53556C8.3513 46.4196 7.32303 46.4197 6.47476 46.3496C5.57741 46.2754 4.67534 46.1111 3.80465 45.6624C2.51214 44.9964 1.46129 43.9336 0.802726 42.6265C0.359084 41.7459 0.196574 40.8336 0.123257 39.9261C0.0539511 39.0682 0.0539894 38.0283 0.0540336 36.8306L0.0540357 1.32407L4.14959 5.77286C9.26171 11.3259 13.0206 17.7509 15.6848 24.7617C16.4458 23.3078 17.1658 21.828 17.8432 20.3241C15.4963 14.7663 13.6983 8.91447 12.5297 2.849L11.9808 0ZM20.4262 13.8935C21.4771 10.9294 22.3684 7.88846 23.0899 4.78318H17.7734C18.4866 7.88791 19.375 10.9289 20.4262 13.8935ZM20.4306 25.9C19.5726 27.5964 18.6622 29.2606 17.7014 30.89C18.136 32.4338 18.5253 34 18.8716 35.5859L19.5065 38.4932H6.83024L9.55969 34.6955C10.6071 33.2382 11.6088 31.7437 12.5627 30.2147C10.7269 24.3551 8.17733 18.9449 4.7836 14.1176V36.7393C4.7836 38.0544 4.78544 38.8969 4.83712 39.5366C4.88654 40.1483 4.9695 40.3611 5.0168 40.4549C5.22193 40.8621 5.54924 41.1931 5.95182 41.4006C6.04466 41.4484 6.25503 41.5323 6.8599 41.5823C7.49237 41.6346 8.32541 41.6364 9.62577 41.6364H17.9649L18.4082 43.4559C18.8399 45.2281 19.551 46.9062 20.4909 48.4348C21.4177 46.9285 22.1225 45.2541 22.5525 43.4636L22.9913 41.6364H31.3367C32.6371 41.6364 33.4701 41.6346 34.1026 41.5823C34.7075 41.5323 34.9178 41.4484 35.0107 41.4006C35.4133 41.1931 35.7406 40.8621 35.9457 40.4549C35.993 40.3611 36.076 40.1483 36.1254 39.5366C36.1771 38.8969 36.1789 38.0544 36.1789 36.7393V14.0995C32.7666 18.9457 30.2067 24.4036 28.368 30.3121C29.3051 31.807 30.2875 33.2689 31.3127 34.6955L34.0422 38.4932H21.4561L22.0909 35.5859C22.4289 34.0378 22.8079 32.5076 23.2302 30.998C22.244 29.3343 21.3098 27.634 20.4306 25.9Z" fill="url(#paint5_linear_1_3571)"/>
<defs>
<linearGradient id="paint0_linear_1_3571" x1="56.0243" y1="7.8109" x2="196.184" y2="70.8267" gradientUnits="userSpaceOnUse">
<stop stop-color="#BDBDBD"/>
<stop offset="0.1329" stop-color="#DCDCDC"/>
<stop offset="0.2719" stop-color="#F5F5F5"/>
<stop offset="0.3552" stop-color="white"/>
<stop offset="0.3917" stop-color="#F6F6F6"/>
<stop offset="0.5189" stop-color="#DDDDDD"/>
<stop offset="0.6512" stop-color="#CBCBCB"/>
<stop offset="0.791" stop-color="#C0C0C0"/>
<stop offset="0.9504" stop-color="#BDBDBD"/>
</linearGradient>
<linearGradient id="paint1_linear_1_3571" x1="56.0243" y1="7.8109" x2="196.184" y2="70.8267" gradientUnits="userSpaceOnUse">
<stop stop-color="#BDBDBD"/>
<stop offset="0.1329" stop-color="#DCDCDC"/>
<stop offset="0.2719" stop-color="#F5F5F5"/>
<stop offset="0.3552" stop-color="white"/>
<stop offset="0.3917" stop-color="#F6F6F6"/>
<stop offset="0.5189" stop-color="#DDDDDD"/>
<stop offset="0.6512" stop-color="#CBCBCB"/>
<stop offset="0.791" stop-color="#C0C0C0"/>
<stop offset="0.9504" stop-color="#BDBDBD"/>
</linearGradient>
<linearGradient id="paint2_linear_1_3571" x1="56.0243" y1="7.8109" x2="196.184" y2="70.8267" gradientUnits="userSpaceOnUse">
<stop stop-color="#BDBDBD"/>
<stop offset="0.1329" stop-color="#DCDCDC"/>
<stop offset="0.2719" stop-color="#F5F5F5"/>
<stop offset="0.3552" stop-color="white"/>
<stop offset="0.3917" stop-color="#F6F6F6"/>
<stop offset="0.5189" stop-color="#DDDDDD"/>
<stop offset="0.6512" stop-color="#CBCBCB"/>
<stop offset="0.791" stop-color="#C0C0C0"/>
<stop offset="0.9504" stop-color="#BDBDBD"/>
</linearGradient>
<linearGradient id="paint3_linear_1_3571" x1="56.0243" y1="7.8109" x2="196.184" y2="70.8267" gradientUnits="userSpaceOnUse">
<stop stop-color="#BDBDBD"/>
<stop offset="0.1329" stop-color="#DCDCDC"/>
<stop offset="0.2719" stop-color="#F5F5F5"/>
<stop offset="0.3552" stop-color="white"/>
<stop offset="0.3917" stop-color="#F6F6F6"/>
<stop offset="0.5189" stop-color="#DDDDDD"/>
<stop offset="0.6512" stop-color="#CBCBCB"/>
<stop offset="0.791" stop-color="#C0C0C0"/>
<stop offset="0.9504" stop-color="#BDBDBD"/>
</linearGradient>
<linearGradient id="paint4_linear_1_3571" x1="56.0243" y1="7.8109" x2="196.184" y2="70.8267" gradientUnits="userSpaceOnUse">
<stop stop-color="#BDBDBD"/>
<stop offset="0.1329" stop-color="#DCDCDC"/>
<stop offset="0.2719" stop-color="#F5F5F5"/>
<stop offset="0.3552" stop-color="white"/>
<stop offset="0.3917" stop-color="#F6F6F6"/>
<stop offset="0.5189" stop-color="#DDDDDD"/>
<stop offset="0.6512" stop-color="#CBCBCB"/>
<stop offset="0.791" stop-color="#C0C0C0"/>
<stop offset="0.9504" stop-color="#BDBDBD"/>
</linearGradient>
<linearGradient id="paint5_linear_1_3571" x1="-4.56892" y1="13.0297" x2="62.8534" y2="51.4107" gradientUnits="userSpaceOnUse">
<stop stop-color="#BDBDBD"/>
<stop offset="0.1329" stop-color="#DCDCDC"/>
<stop offset="0.2719" stop-color="#F5F5F5"/>
<stop offset="0.3552" stop-color="white"/>
<stop offset="0.3917" stop-color="#F6F6F6"/>
<stop offset="0.5189" stop-color="#DDDDDD"/>
<stop offset="0.6512" stop-color="#CBCBCB"/>
<stop offset="0.791" stop-color="#C0C0C0"/>
<stop offset="0.9504" stop-color="#BDBDBD"/>
</linearGradient>
</defs>
</svg>
